<?xml version="1.0"?>
<svg width="471" height="109" xmlns="http://www.w3.org/2000/svg">
 <!-- Created with Method Draw - http://github.com/duopixel/Method-Draw/ -->
 <g>
  <title>Layer 1</title>
  <g id="svg_1">
   <g id="svg_41">
    <path id="svg_35" d="m20.709,95.405998l1.836,-17.745995l17.038,-4.816002c0,0 12.249001,9.056999 16.362999,11.300995c0,0 -14.035999,-9.544998 -15.355999,-12.718994l3.306,-17.910004l19.182999,-9.058998l16.001003,7.521l0.168999,15.797001l-0.830002,-16.238003l14.347,-14.239998l-8.191002,-14.68l-15.497993,2.237999l-15.842003,-11.023999l2.444,-9.528c2.445,-0.144 4.756001,-0.133 6.877998,0c3.168999,0.197 5.927002,0.645 8.177002,1.124c0.562996,0.124 1.095001,0.242 1.596001,0.352c0.498001,0.131 0.962997,0.252 1.396996,0.365c0.870003,0.224 1.609001,0.422 2.197006,0.625c1.189995,0.369 1.824997,0.565 1.824997,0.565s-0.597,-0.294 -1.716003,-0.847c-0.556999,-0.287 -1.263,-0.592 -2.101997,-0.941c-0.418999,-0.174 -0.866997,-0.375 -1.351997,-0.566c-0.491005,-0.173 -1.014999,-0.359 -1.566002,-0.555c-0.552002,-0.202 -1.138,-0.402 -1.763,-0.578c-0.622002,-0.181 -1.273003,-0.388 -1.958,-0.574c-0.691002,-0.164 -1.411003,-0.337 -2.156998,-0.514c-0.75,-0.17 -1.537003,-0.289 -2.347004,-0.443c-3.247997,-0.548 -6.988998,-0.871 -11.077999,-0.672c-4.085999,0.169 -8.514,0.883 -13.032997,2.253c-2.252003,0.702 -4.547001,1.521 -6.805002,2.568c-2.278999,0.998 -4.504999,2.25 -6.692999,3.637c-4.372002,2.782 -8.495001,6.318999 -12.044001,10.477c-1.786,2.072001 -3.399,4.316 -4.875,6.656c-0.708,1.188 -1.424,2.368999 -2.065,3.65c-0.333,0.629 -0.668,1.263998 -0.927,1.851999l-0.862,1.865002c-1.057,2.567997 -1.988,5.188999 -2.689,7.868999c-0.684,2.681999 -1.198,5.396 -1.473,8.117001c-0.579,5.438999 -0.261,10.856998 0.709,15.942997c0.491,2.542999 1.107,5.021004 1.953,7.362999c0.795,2.357002 1.78,4.584 2.82,6.701004c2.114,4.224998 4.648,7.921997 7.336,11.001999c2.667,3.106003 5.479,5.594002 8.108999,7.572998c0.669001,0.481003 1.297001,0.976006 1.935001,1.397003c0.643999,0.420998 1.262999,0.822006 1.858999,1.212006c0.125999,0.074989 0.523001,0.261993 1.053999,0.5c8.329,4.55899 15.328001,4.53199 15.328001,4.53199m42.661003,-81.511997l5.984993,13.006001l-7.540993,-9.643l-7.438004,-1.793001l8.994003,-1.57zm-45.847004,45.560001l0.104,-15.330002l-9.609999,-9.063l12.736998,7.600002l-3.230999,16.792999zm14.484001,-65.923001l-1.663002,7.563l-0.345997,-7.154c0.537998,-0.499 2.008999,-0.409 2.008999,-0.409zm0.659,9.446l14.229996,11.929001l-4.734997,16.425999l-19.143002,9.951l-15.325998,-8.756001l8.238001,-23.950998l16.736,-5.599001zm-48.029001,36.776001c0.283,-2.473 0.827,-4.922001 1.447,-7.357002c0.652,-2.427998 1.514,-4.806999 2.486,-7.136997l0.801,-1.748001c0.271,-0.625 0.558001,-1.16 0.842,-1.702999c0.537001,-1.092003 1.188,-2.18 1.825,-3.262001c1.34,-2.125 2.746,-4.205 4.344001,-6.113001c0.375999,-0.496 0.813,-0.938 1.212999,-1.407999c0.409,-0.467001 0.813,-0.934 1.253,-1.367001c0.429001,-0.441 0.855,-0.885 1.281,-1.326c0.447001,-0.421999 0.893,-0.84 1.337,-1.26c1.527,-1.380999 3.101999,-2.684999 4.737,-3.863999l8.225002,5.327001l-7.347002,23.960001l-14.842,11.101997l-7.957,0.734001c0.06,-1.522999 0.175,-3.048 0.355,-4.577999zm6.858,33.521999c-0.503,-0.907997 -1.033,-1.818001 -1.498,-2.780998c-0.503,-0.945 -0.933001,-1.941002 -1.383,-2.943001c-0.854,-2.025002 -1.647,-4.140999 -2.255,-6.359001c-0.339,-1.098 -0.575,-2.234001 -0.866,-3.366997c-0.132,-0.57 -0.232,-1.150002 -0.35,-1.729004c-0.123,-0.580002 -0.226,-1.162003 -0.302,-1.753998c-0.512,-3.184002 -0.685,-6.482002 -0.565,-9.813l7.646,-0.098003l8.658,20.826004l-0.636,18.632996c-0.887001,-0.775002 -1.788,-1.594002 -2.720001,-2.462997c-0.827999,-0.974998 -1.652,-2.003998 -2.462,-3.096001c-0.572,-0.780998 -1.118,-1.603996 -1.684,-2.434998c-0.514999,-0.860001 -1.092,-1.701004 -1.582999,-2.621002z" fill="#44403F"/>
    <polyline id="svg_36" points="26.974998474121094,42.99800109863281 11.513999938964844,53.66999816894531 21.917999267578125,77.14099884033203 40.76499938964844,72.08999633789062 43.8280029296875,52.23999786376953 29.12099838256836,44.24800109863281 " fill="#E21525"/>
    <polygon id="svg_37" points="28.713001251220703,45.946998596191406 38.32400131225586,55.01000213623047 38.231998443603516,68.33000183105469 41.45100021362305,53.5469970703125 " fill="#FFFFFF"/>
    <path id="svg_38" d="m27.031,13.801l9.282999,6.662l17.181,-6.893l2.375,-10.078c0,0 -14.871998,0.279 -28.838999,10.309z" fill="#322975"/>
    <polygon id="svg_39" points="68.23100280761719,24.321998596191406 62.22100067138672,44.878997802734375 79.08000183105469,51.97899627685547 93.21099853515625,38.12699890136719 84.57499694824219,22.617000579833984 " fill="#322975"/>
    <polygon id="svg_40" points="75.30000305175781,26.40599822998047 83.75299835205078,24.80699920654297 89.5979995727539,36.80099868774414 82.447998046875,27.777000427246094 " fill="#FCFCFC"/>
   </g>
   <g id="svg_45">
    <rect id="svg_42" height="41.49" width="7.75" fill="#4A4493" y="66.285" x="445.24"/>
    <rect id="svg_43" height="32.117" width="7.75" fill="#797AB2" y="75.658" x="454.123"/>
    <rect id="svg_44" height="25.326" width="7.75" fill="#9E9EC9" y="82.449" x="462.957"/>
   </g>
   <g id="svg_60">
    <path id="svg_46" d="m79.688004,117.651993l0.833,0l0,0.834l-0.833,0l0,-0.834zm0,1.666l0.833,0l0,0.834l-0.833,0l0,-0.834zm0,1.667999l0.833,0l0,0.832001l-0.833,0l0,-0.832001zm0,1.666l0.833,0l0,0.832001l-0.833,0l0,-0.832001zm0,1.666l0.833,0l0,0.831993l-0.833,0l0,-0.831993zm0,1.666l0.833,0l0,0.834l-0.833,0l0,-0.834zm0,1.665993l0.833,0l0,0.834007l-0.833,0l0,-0.834007zm0,1.666008l0.833,0l0,0.834l-0.833,0l0,-0.834zm0,1.667999l0.833,0l0,0.832001l-0.833,0l0,-0.832001zm0,1.666l0.833,0l0,0.832001l-0.833,0l0,-0.832001zm0,1.666l0.833,0l0,0.834l-0.833,0l0,-0.834zm0,1.666l0.833,0l0,0.834l-0.833,0l0,-0.834zm1.665993,-18.330002l0.833,0l0,0.834l-0.833,0l0,-0.834zm0,1.666l0.833,0l0,0.834l-0.833,0l0,-0.834zm0,1.667999l0.833,0l0,0.832001l-0.833,0l0,-0.832001zm0,1.666l0.833,0l0,0.832001l-0.833,0l0,-0.832001zm0,1.666l0.833,0l0,0.831993l-0.833,0l0,-0.831993zm0,1.666l0.833,0l0,0.834l-0.833,0l0,-0.834zm0,1.665993l0.833,0l0,0.834007l-0.833,0l0,-0.834007zm0,1.666008l0.833,0l0,0.834l-0.833,0l0,-0.834zm0,1.667999l0.833,0l0,0.832001l-0.833,0l0,-0.832001zm0,1.666l0.833,0l0,0.832001l-0.833,0l0,-0.832001zm0,1.666l0.833,0l0,0.834l-0.833,0l0,-0.834zm0,1.666l0.833,0l0,0.834l-0.833,0l0,-0.834zm1.667007,-18.330002l0.832993,0l0,0.834l-0.832993,0l0,-0.834zm0,1.666l0.832993,0l0,0.834l-0.832993,0l0,-0.834zm0,8.331993l0.832993,0l0,0.834007l-0.832993,0l0,-0.834007zm0,1.666008l0.832993,0l0,0.834l-0.832993,0l0,-0.834zm1.667,-11.664001l0.833,0l0,0.834l-0.833,0l0,-0.834zm0,1.666l0.833,0l0,0.834l-0.833,0l0,-0.834zm0,8.331993l0.833,0l0,0.834007l-0.833,0l0,-0.834007zm0,1.666008l0.833,0l0,0.834l-0.833,0l0,-0.834zm1.665993,-11.664001l0.833,0l0,0.834l-0.833,0l0,-0.834zm0,1.666l0.833,0l0,0.834l-0.833,0l0,-0.834zm0,8.331993l0.833,0l0,0.834007l-0.833,0l0,-0.834007zm0,1.666008l0.833,0l0,0.834l-0.833,0l0,-0.834zm1.666,-11.664001l0.833,0l0,0.834l-0.833,0l0,-0.834zm0,1.666l0.833,0l0,0.834l-0.833,0l0,-0.834zm0,1.667999l0.833,0l0,0.832001l-0.833,0l0,-0.832001zm0,1.666l0.833,0l0,0.832001l-0.833,0l0,-0.832001zm0,1.666l0.833,0l0,0.831993l-0.833,0l0,-0.831993zm0,1.666l0.833,0l0,0.834l-0.833,0l0,-0.834zm0,1.665993l0.833,0l0,0.834007l-0.833,0l0,-0.834007zm0,1.666008l0.833,0l0,0.834l-0.833,0l0,-0.834zm1.667,-9.998001l0.833,0l0,0.834l-0.833,0l0,-0.834zm0,1.667999l0.833,0l0,0.832001l-0.833,0l0,-0.832001zm0,1.666l0.833,0l0,0.832001l-0.833,0l0,-0.832001zm0,1.666l0.833,0l0,0.831993l-0.833,0l0,-0.831993zm0,1.666l0.833,0l0,0.834l-0.833,0l0,-0.834zm0,1.665993l0.833,0l0,0.834007l-0.833,0l0,-0.834007z"/>
    <path id="svg_47" d="m93.069,117.651993l0.833,0l0,0.834l-0.833,0l0,-0.834zm0,1.666l0.833,0l0,0.834l-0.833,0l0,-0.834zm0,5l0.833,0l0,0.831993l-0.833,0l0,-0.831993zm0,1.666l0.833,0l0,0.834l-0.833,0l0,-0.834zm0,1.665993l0.833,0l0,0.834007l-0.833,0l0,-0.834007zm1.666,-9.997993l0.833,0l0,0.834l-0.833,0l0,-0.834zm0,1.666l0.833,0l0,0.834l-0.833,0l0,-0.834zm0,3.334l0.833,0l0,0.832001l-0.833,0l0,-0.832001zm0,1.666l0.833,0l0,0.831993l-0.833,0l0,-0.831993zm0,1.666l0.833,0l0,0.834l-0.833,0l0,-0.834zm0,1.665993l0.833,0l0,0.834007l-0.833,0l0,-0.834007zm0,1.666008l0.833,0l0,0.834l-0.833,0l0,-0.834zm1.667,-11.664001l0.833,0l0,0.834l-0.833,0l0,-0.834zm0,1.666l0.833,0l0,0.834l-0.833,0l0,-0.834zm0,3.334l0.833,0l0,0.832001l-0.833,0l0,-0.832001zm0,1.666l0.833,0l0,0.831993l-0.833,0l0,-0.831993zm0,3.331993l0.833,0l0,0.834007l-0.833,0l0,-0.834007zm0,1.666008l0.833,0l0,0.834l-0.833,0l0,-0.834zm1.666,-11.664001l0.833,0l0,0.834l-0.833,0l0,-0.834zm0,1.666l0.833,0l0,0.834l-0.833,0l0,-0.834zm0,3.334l0.833,0l0,0.832001l-0.833,0l0,-0.832001zm0,1.666l0.833,0l0,0.831993l-0.833,0l0,-0.831993zm0,3.331993l0.833,0l0,0.834007l-0.833,0l0,-0.834007zm0,1.666008l0.833,0l0,0.834l-0.833,0l0,-0.834zm1.666,-11.664001l0.833,0l0,0.834l-0.833,0l0,-0.834zm0,1.666l0.833,0l0,0.834l-0.833,0l0,-0.834zm0,3.334l0.833,0l0,0.832001l-0.833,0l0,-0.832001zm0,1.666l0.833,0l0,0.831993l-0.833,0l0,-0.831993zm0,3.331993l0.833,0l0,0.834007l-0.833,0l0,-0.834007zm0,1.666008l0.833,0l0,0.834l-0.833,0l0,-0.834zm1.667,-11.664001l0.833,0l0,0.834l-0.833,0l0,-0.834zm0,1.666l0.833,0l0,0.834l-0.833,0l0,-0.834zm0,1.667999l0.833,0l0,0.832001l-0.833,0l0,-0.832001zm0,1.666l0.833,0l0,0.832001l-0.833,0l0,-0.832001zm0,1.666l0.833,0l0,0.831993l-0.833,0l0,-0.831993zm0,1.666l0.833,0l0,0.834l-0.833,0l0,-0.834zm0,1.665993l0.833,0l0,0.834007l-0.833,0l0,-0.834007zm0,1.666008l0.833,0l0,0.834l-0.833,0l0,-0.834zm1.666,-9.998001l0.833,0l0,0.834l-0.833,0l0,-0.834zm0,1.667999l0.833,0l0,0.832001l-0.833,0l0,-0.832001zm0,1.666l0.833,0l0,0.832001l-0.833,0l0,-0.832001zm0,1.666l0.833,0l0,0.831993l-0.833,0l0,-0.831993zm0,1.666l0.833,0l0,0.834l-0.833,0l0,-0.834zm0,1.665993l0.833,0l0,0.834007l-0.833,0l0,-0.834007zm0,1.666008l0.833,0l0,0.834l-0.833,0l0,-0.834z"/>
    <path id="svg_48" d="m106.449997,119.317993l0.833,0l0,0.834l-0.833,0l0,-0.834zm0,1.667999l0.833,0l0,0.832001l-0.833,0l0,-0.832001zm0,1.666l0.833,0l0,0.832001l-0.833,0l0,-0.832001zm0,4.997993l0.833,0l0,0.834007l-0.833,0l0,-0.834007zm0,1.666008l0.833,0l0,0.834l-0.833,0l0,-0.834zm1.666,-11.664001l0.833015,0l0,0.834l-0.833015,0l0,-0.834zm0,1.666l0.833015,0l0,0.834l-0.833015,0l0,-0.834zm0,1.667999l0.833015,0l0,0.832001l-0.833015,0l0,-0.832001zm0,1.666l0.833015,0l0,0.832001l-0.833015,0l0,-0.832001zm0,1.666l0.833015,0l0,0.831993l-0.833015,0l0,-0.831993zm0,3.331993l0.833015,0l0,0.834007l-0.833015,0l0,-0.834007zm0,1.666008l0.833015,0l0,0.834l-0.833015,0l0,-0.834zm1.666,-11.664001l0.833015,0l0,0.834l-0.833015,0l0,-0.834zm0,1.666l0.833015,0l0,0.834l-0.833015,0l0,-0.834zm0,3.334l0.833015,0l0,0.832001l-0.833015,0l0,-0.832001zm0,1.666l0.833015,0l0,0.831993l-0.833015,0l0,-0.831993zm0,3.331993l0.833015,0l0,0.834007l-0.833015,0l0,-0.834007zm0,1.666008l0.833015,0l0,0.834l-0.833015,0l0,-0.834zm1.667015,-11.664001l0.833,0l0,0.834l-0.833,0l0,-0.834zm0,1.666l0.833,0l0,0.834l-0.833,0l0,-0.834zm0,3.334l0.833,0l0,0.832001l-0.833,0l0,-0.832001zm0,1.666l0.833,0l0,0.831993l-0.833,0l0,-0.831993zm0,3.331993l0.833,0l0,0.834007l-0.833,0l0,-0.834007zm0,1.666008l0.833,0l0,0.834l-0.833,0l0,-0.834zm1.666,-11.664001l0.833,0l0,0.834l-0.833,0l0,-0.834zm0,1.666l0.833,0l0,0.834l-0.833,0l0,-0.834zm0,3.334l0.833,0l0,0.832001l-0.833,0l0,-0.832001zm0,1.666l0.833,0l0,0.831993l-0.833,0l0,-0.831993zm0,3.331993l0.833,0l0,0.834007l-0.833,0l0,-0.834007zm0,1.666008l0.833,0l0,0.834l-0.833,0l0,-0.834zm1.666,-11.664001l0.833,0l0,0.834l-0.833,0l0,-0.834zm0,1.666l0.833,0l0,0.834l-0.833,0l0,-0.834zm0,3.334l0.833,0l0,0.832001l-0.833,0l0,-0.832001zm0,1.666l0.833,0l0,0.831993l-0.833,0l0,-0.831993zm0,1.666l0.833,0l0,0.834l-0.833,0l0,-0.834zm0,1.665993l0.833,0l0,0.834007l-0.833,0l0,-0.834007zm0,1.666008l0.833,0l0,0.834l-0.833,0l0,-0.834zm1.666985,-11.664001l0.833015,0l0,0.834l-0.833015,0l0,-0.834zm0,1.666l0.833015,0l0,0.834l-0.833015,0l0,-0.834zm0,5l0.833015,0l0,0.831993l-0.833015,0l0,-0.831993zm0,1.666l0.833015,0l0,0.834l-0.833015,0l0,-0.834zm0,1.665993l0.833015,0l0,0.834007l-0.833015,0l0,-0.834007z"/>
    <path id="svg_49" d="m119.830002,117.651993l0.832985,0l0,0.834l-0.832985,0l0,-0.834zm0,1.666l0.832985,0l0,0.834l-0.832985,0l0,-0.834zm0,8.331993l0.832985,0l0,0.834007l-0.832985,0l0,-0.834007zm0,1.666008l0.832985,0l0,0.834l-0.832985,0l0,-0.834zm1.666985,-11.664001l0.833,0l0,0.834l-0.833,0l0,-0.834zm0,1.666l0.833,0l0,0.834l-0.833,0l0,-0.834zm0,8.331993l0.833,0l0,0.834007l-0.833,0l0,-0.834007zm0,1.666008l0.833,0l0,0.834l-0.833,0l0,-0.834zm1.666,-16.661987l0.833,0l0,0.832001l-0.833,0l0,-0.832001zm0,1.666l0.833,0l0,0.832001l-0.833,0l0,-0.832001zm0,3.331985l0.833,0l0,0.834l-0.833,0l0,-0.834zm0,1.666l0.833,0l0,0.834l-0.833,0l0,-0.834zm0,1.667999l0.833,0l0,0.832001l-0.833,0l0,-0.832001zm0,1.666l0.833,0l0,0.832001l-0.833,0l0,-0.832001zm0,1.666l0.833,0l0,0.831993l-0.833,0l0,-0.831993zm0,1.666l0.833,0l0,0.834l-0.833,0l0,-0.834zm0,1.665993l0.833,0l0,0.834007l-0.833,0l0,-0.834007zm0,1.666008l0.833,0l0,0.834l-0.833,0l0,-0.834zm1.666,-16.661987l0.833,0l0,0.832001l-0.833,0l0,-0.832001zm0,1.666l0.833,0l0,0.832001l-0.833,0l0,-0.832001zm0,3.331985l0.833,0l0,0.834l-0.833,0l0,-0.834zm0,1.666l0.833,0l0,0.834l-0.833,0l0,-0.834zm0,1.667999l0.833,0l0,0.832001l-0.833,0l0,-0.832001zm0,1.666l0.833,0l0,0.832001l-0.833,0l0,-0.832001zm0,1.666l0.833,0l0,0.831993l-0.833,0l0,-0.831993zm0,1.666l0.833,0l0,0.834l-0.833,0l0,-0.834zm0,1.665993l0.833,0l0,0.834007l-0.833,0l0,-0.834007zm0,1.666008l0.833,0l0,0.834l-0.833,0l0,-0.834zm1.667015,-1.666008l0.832985,0l0,0.834007l-0.832985,0l0,-0.834007zm0,1.666008l0.832985,0l0,0.834l-0.832985,0l0,-0.834zm1.666,-1.666008l0.832993,0l0,0.834007l-0.832993,0l0,-0.834007zm0,1.666008l0.832993,0l0,0.834l-0.832993,0l0,-0.834z"/>
    <path id="svg_50" d="m131.544006,119.317993l0.833008,0l0,0.834l-0.833008,0l0,-0.834zm0,1.667999l0.833008,0l0,0.832001l-0.833008,0l0,-0.832001zm0,1.666l0.833008,0l0,0.832001l-0.833008,0l0,-0.832001zm0,1.666l0.833008,0l0,0.831993l-0.833008,0l0,-0.831993zm0,1.666l0.833008,0l0,0.834l-0.833008,0l0,-0.834zm0,1.665993l0.833008,0l0,0.834007l-0.833008,0l0,-0.834007zm1.666992,-9.997993l0.833008,0l0,0.834l-0.833008,0l0,-0.834zm0,1.666l0.833008,0l0,0.834l-0.833008,0l0,-0.834zm0,1.667999l0.833008,0l0,0.832001l-0.833008,0l0,-0.832001zm0,1.666l0.833008,0l0,0.832001l-0.833008,0l0,-0.832001zm0,1.666l0.833008,0l0,0.831993l-0.833008,0l0,-0.831993zm0,1.666l0.833008,0l0,0.834l-0.833008,0l0,-0.834zm0,1.665993l0.833008,0l0,0.834007l-0.833008,0l0,-0.834007zm0,1.666008l0.833008,0l0,0.834l-0.833008,0l0,-0.834zm1.666,-11.664001l0.833008,0l0,0.834l-0.833008,0l0,-0.834zm0,1.666l0.833008,0l0,0.834l-0.833008,0l0,-0.834zm0,8.331993l0.833008,0l0,0.834007l-0.833008,0l0,-0.834007zm0,1.666008l0.833008,0l0,0.834l-0.833008,0l0,-0.834zm1.666,-16.661987l0.833008,0l0,0.832001l-0.833008,0l0,-0.832001zm0,1.666l0.833008,0l0,0.832001l-0.833008,0l0,-0.832001zm0,3.331985l0.833008,0l0,0.834l-0.833008,0l0,-0.834zm0,1.666l0.833008,0l0,0.834l-0.833008,0l0,-0.834zm0,8.331993l0.833008,0l0,0.834007l-0.833008,0l0,-0.834007zm0,1.666008l0.833008,0l0,0.834l-0.833008,0l0,-0.834zm1.667007,-18.327988l0.833008,0l0,0.832001l-0.833008,0l0,-0.832001zm0,1.666l0.833008,0l0,0.832001l-0.833008,0l0,-0.832001zm0,1.666l0.833008,0l0,0.832001l-0.833008,0l0,-0.832001zm0,3.331985l0.833008,0l0,0.834l-0.833008,0l0,-0.834zm0,1.666l0.833008,0l0,0.834l-0.833008,0l0,-0.834zm0,8.331993l0.833008,0l0,0.834007l-0.833008,0l0,-0.834007zm0,1.666008l0.833008,0l0,0.834l-0.833008,0l0,-0.834zm1.666,-18.327988l0.833008,0l0,0.832001l-0.833008,0l0,-0.832001zm0,1.666l0.833008,0l0,0.832001l-0.833008,0l0,-0.832001zm0,4.997986l0.833008,0l0,0.834l-0.833008,0l0,-0.834zm0,1.666l0.833008,0l0,0.834l-0.833008,0l0,-0.834zm0,1.667999l0.833008,0l0,0.832001l-0.833008,0l0,-0.832001zm0,1.666l0.833008,0l0,0.832001l-0.833008,0l0,-0.832001zm0,1.666l0.833008,0l0,0.831993l-0.833008,0l0,-0.831993zm0,1.666l0.833008,0l0,0.834l-0.833008,0l0,-0.834zm0,1.665993l0.833008,0l0,0.834007l-0.833008,0l0,-0.834007zm0,1.666008l0.833008,0l0,0.834l-0.833008,0l0,-0.834zm1.666992,-9.998001l0.833008,0l0,0.834l-0.833008,0l0,-0.834zm0,1.667999l0.833008,0l0,0.832001l-0.833008,0l0,-0.832001zm0,1.666l0.833008,0l0,0.832001l-0.833008,0l0,-0.832001zm0,1.666l0.833008,0l0,0.831993l-0.833008,0l0,-0.831993zm0,1.666l0.833008,0l0,0.834l-0.833008,0l0,-0.834zm0,1.665993l0.833008,0l0,0.834007l-0.833008,0l0,-0.834007z"/>
    <path id="svg_51" d="m144.925003,117.651993l0.832993,0l0,0.834l-0.832993,0l0,-0.834zm0,1.666l0.832993,0l0,0.834l-0.832993,0l0,-0.834zm0,1.667999l0.832993,0l0,0.832001l-0.832993,0l0,-0.832001zm0,1.666l0.832993,0l0,0.832001l-0.832993,0l0,-0.832001zm0,1.666l0.832993,0l0,0.831993l-0.832993,0l0,-0.831993zm0,1.666l0.832993,0l0,0.834l-0.832993,0l0,-0.834zm0,1.665993l0.832993,0l0,0.834007l-0.832993,0l0,-0.834007zm0,1.666008l0.832993,0l0,0.834l-0.832993,0l0,-0.834zm1.666,-11.664001l0.832993,0l0,0.834l-0.832993,0l0,-0.834zm0,1.666l0.832993,0l0,0.834l-0.832993,0l0,-0.834zm0,1.667999l0.832993,0l0,0.832001l-0.832993,0l0,-0.832001zm0,1.666l0.832993,0l0,0.832001l-0.832993,0l0,-0.832001zm0,1.666l0.832993,0l0,0.831993l-0.832993,0l0,-0.831993zm0,1.666l0.832993,0l0,0.834l-0.832993,0l0,-0.834zm0,1.665993l0.832993,0l0,0.834007l-0.832993,0l0,-0.834007zm0,1.666008l0.832993,0l0,0.834l-0.832993,0l0,-0.834zm1.666992,-11.664001l0.833008,0l0,0.834l-0.833008,0l0,-0.834zm0,1.666l0.833008,0l0,0.834l-0.833008,0l0,-0.834zm1.666,-1.666l0.833008,0l0,0.834l-0.833008,0l0,-0.834zm0,1.666l0.833008,0l0,0.834l-0.833008,0l0,-0.834zm1.667007,-1.666l0.832993,0l0,0.834l-0.832993,0l0,-0.834zm0,1.666l0.832993,0l0,0.834l-0.832993,0l0,-0.834zm1.666,-1.666l0.832993,0l0,0.834l-0.832993,0l0,-0.834zm0,1.666l0.832993,0l0,0.834l-0.832993,0l0,-0.834zm0,1.667999l0.832993,0l0,0.832001l-0.832993,0l0,-0.832001zm0,1.666l0.832993,0l0,0.832001l-0.832993,0l0,-0.832001zm0,1.666l0.832993,0l0,0.831993l-0.832993,0l0,-0.831993zm0,1.666l0.832993,0l0,0.834l-0.832993,0l0,-0.834zm0,1.665993l0.832993,0l0,0.834007l-0.832993,0l0,-0.834007zm0,1.666008l0.832993,0l0,0.834l-0.832993,0l0,-0.834zm1.666,-9.998001l0.832993,0l0,0.834l-0.832993,0l0,-0.834zm0,1.667999l0.832993,0l0,0.832001l-0.832993,0l0,-0.832001zm0,1.666l0.832993,0l0,0.832001l-0.832993,0l0,-0.832001zm0,1.666l0.832993,0l0,0.831993l-0.832993,0l0,-0.831993zm0,1.666l0.832993,0l0,0.834l-0.832993,0l0,-0.834zm0,1.665993l0.832993,0l0,0.834007l-0.832993,0l0,-0.834007zm0,1.666008l0.832993,0l0,0.834l-0.832993,0l0,-0.834z"/>
    <path id="svg_52" d="m173.352997,119.317993l0.833008,0l0,0.834l-0.833008,0l0,-0.834zm0,1.667999l0.833008,0l0,0.832001l-0.833008,0l0,-0.832001zm0,1.666l0.833008,0l0,0.832001l-0.833008,0l0,-0.832001zm0,1.666l0.833008,0l0,0.831993l-0.833008,0l0,-0.831993zm0,1.666l0.833008,0l0,0.834l-0.833008,0l0,-0.834zm0,1.665993l0.833008,0l0,0.834007l-0.833008,0l0,-0.834007zm1.666,-9.997993l0.833008,0l0,0.834l-0.833008,0l0,-0.834zm0,1.666l0.833008,0l0,0.834l-0.833008,0l0,-0.834zm0,1.667999l0.833008,0l0,0.832001l-0.833008,0l0,-0.832001zm0,1.666l0.833008,0l0,0.832001l-0.833008,0l0,-0.832001zm0,1.666l0.833008,0l0,0.831993l-0.833008,0l0,-0.831993zm0,1.666l0.833008,0l0,0.834l-0.833008,0l0,-0.834zm0,1.665993l0.833008,0l0,0.834007l-0.833008,0l0,-0.834007zm0,1.666008l0.833008,0l0,0.834l-0.833008,0l0,-0.834zm1.667007,-11.664001l0.832993,0l0,0.834l-0.832993,0l0,-0.834zm0,1.666l0.832993,0l0,0.834l-0.832993,0l0,-0.834zm0,3.334l0.832993,0l0,0.832001l-0.832993,0l0,-0.832001zm0,1.666l0.832993,0l0,0.831993l-0.832993,0l0,-0.831993zm0,3.331993l0.832993,0l0,0.834007l-0.832993,0l0,-0.834007zm0,1.666008l0.832993,0l0,0.834l-0.832993,0l0,-0.834zm1.666,-11.664001l0.833008,0l0,0.834l-0.833008,0l0,-0.834zm0,1.666l0.833008,0l0,0.834l-0.833008,0l0,-0.834zm0,3.334l0.833008,0l0,0.832001l-0.833008,0l0,-0.832001zm0,1.666l0.833008,0l0,0.831993l-0.833008,0l0,-0.831993zm0,3.331993l0.833008,0l0,0.834007l-0.833008,0l0,-0.834007zm0,1.666008l0.833008,0l0,0.834l-0.833008,0l0,-0.834zm1.666992,-11.664001l0.833008,0l0,0.834l-0.833008,0l0,-0.834zm0,1.666l0.833008,0l0,0.834l-0.833008,0l0,-0.834zm0,3.334l0.833008,0l0,0.832001l-0.833008,0l0,-0.832001zm0,1.666l0.833008,0l0,0.831993l-0.833008,0l0,-0.831993zm0,3.331993l0.833008,0l0,0.834007l-0.833008,0l0,-0.834007zm0,1.666008l0.833008,0l0,0.834l-0.833008,0l0,-0.834zm1.666,-11.664001l0.833008,0l0,0.834l-0.833008,0l0,-0.834zm0,1.666l0.833008,0l0,0.834l-0.833008,0l0,-0.834zm0,1.667999l0.833008,0l0,0.832001l-0.833008,0l0,-0.832001zm0,1.666l0.833008,0l0,0.832001l-0.833008,0l0,-0.832001zm0,1.666l0.833008,0l0,0.831993l-0.833008,0l0,-0.831993zm0,3.331993l0.833008,0l0,0.834007l-0.833008,0l0,-0.834007zm0,1.666008l0.833008,0l0,0.834l-0.833008,0l0,-0.834zm1.666,-9.998001l0.833008,0l0,0.834l-0.833008,0l0,-0.834zm0,1.667999l0.833008,0l0,0.832001l-0.833008,0l0,-0.832001zm0,1.666l0.833008,0l0,0.832001l-0.833008,0l0,-0.832001zm0,1.666l0.833008,0l0,0.831993l-0.833008,0l0,-0.831993zm0,3.331993l0.833008,0l0,0.834007l-0.833008,0l0,-0.834007zm0,1.666008l0.833008,0l0,0.834l-0.833008,0l0,-0.834z"/>
    <path id="svg_53" d="m186.733002,117.651993l0.832993,0l0,0.834l-0.832993,0l0,-0.834zm0,1.666l0.832993,0l0,0.834l-0.832993,0l0,-0.834zm0,1.667999l0.832993,0l0,0.832001l-0.832993,0l0,-0.832001zm0,1.666l0.832993,0l0,0.832001l-0.832993,0l0,-0.832001zm0,1.666l0.832993,0l0,0.831993l-0.832993,0l0,-0.831993zm0,1.666l0.832993,0l0,0.834l-0.832993,0l0,-0.834zm0,1.665993l0.832993,0l0,0.834007l-0.832993,0l0,-0.834007zm0,1.666008l0.832993,0l0,0.834l-0.832993,0l0,-0.834zm1.666992,-11.664001l0.832993,0l0,0.834l-0.832993,0l0,-0.834zm0,1.666l0.832993,0l0,0.834l-0.832993,0l0,-0.834zm0,1.667999l0.832993,0l0,0.832001l-0.832993,0l0,-0.832001zm0,1.666l0.832993,0l0,0.832001l-0.832993,0l0,-0.832001zm0,1.666l0.832993,0l0,0.831993l-0.832993,0l0,-0.831993zm0,1.666l0.832993,0l0,0.834l-0.832993,0l0,-0.834zm0,1.665993l0.832993,0l0,0.834007l-0.832993,0l0,-0.834007zm0,1.666008l0.832993,0l0,0.834l-0.832993,0l0,-0.834zm1.666,-11.664001l0.832993,0l0,0.834l-0.832993,0l0,-0.834zm0,1.666l0.832993,0l0,0.834l-0.832993,0l0,-0.834zm1.666,-1.666l0.832993,0l0,0.834l-0.832993,0l0,-0.834zm0,1.666l0.832993,0l0,0.834l-0.832993,0l0,-0.834zm1.667007,-1.666l0.832993,0l0,0.834l-0.832993,0l0,-0.834zm0,1.666l0.832993,0l0,0.834l-0.832993,0l0,-0.834zm1.666,-1.666l0.832993,0l0,0.834l-0.832993,0l0,-0.834zm0,1.666l0.832993,0l0,0.834l-0.832993,0l0,-0.834zm0,1.667999l0.832993,0l0,0.832001l-0.832993,0l0,-0.832001zm0,1.666l0.832993,0l0,0.832001l-0.832993,0l0,-0.832001zm0,1.666l0.832993,0l0,0.831993l-0.832993,0l0,-0.831993zm0,1.666l0.832993,0l0,0.834l-0.832993,0l0,-0.834zm0,1.665993l0.832993,0l0,0.834007l-0.832993,0l0,-0.834007zm0,1.666008l0.832993,0l0,0.834l-0.832993,0l0,-0.834zm1.666,-9.998001l0.832993,0l0,0.834l-0.832993,0l0,-0.834zm0,1.667999l0.832993,0l0,0.832001l-0.832993,0l0,-0.832001zm0,1.666l0.832993,0l0,0.832001l-0.832993,0l0,-0.832001zm0,1.666l0.832993,0l0,0.831993l-0.832993,0l0,-0.831993zm0,1.666l0.832993,0l0,0.834l-0.832993,0l0,-0.834zm0,1.665993l0.832993,0l0,0.834007l-0.832993,0l0,-0.834007zm0,1.666008l0.832993,0l0,0.834l-0.832993,0l0,-0.834z"/>
    <path id="svg_54" d="m215.160995,119.317993l0.833008,0l0,0.834l-0.833008,0l0,-0.834zm0,1.667999l0.833008,0l0,0.832001l-0.833008,0l0,-0.832001zm0,1.666l0.833008,0l0,0.832001l-0.833008,0l0,-0.832001zm0,1.666l0.833008,0l0,0.831993l-0.833008,0l0,-0.831993zm0,1.666l0.833008,0l0,0.834l-0.833008,0l0,-0.834zm0,1.665993l0.833008,0l0,0.834007l-0.833008,0l0,-0.834007zm1.666,-9.997993l0.833008,0l0,0.834l-0.833008,0l0,-0.834zm0,1.666l0.833008,0l0,0.834l-0.833008,0l0,-0.834zm0,1.667999l0.833008,0l0,0.832001l-0.833008,0l0,-0.832001zm0,1.666l0.833008,0l0,0.832001l-0.833008,0l0,-0.832001zm0,1.666l0.833008,0l0,0.831993l-0.833008,0l0,-0.831993zm0,1.666l0.833008,0l0,0.834l-0.833008,0l0,-0.834zm0,1.665993l0.833008,0l0,0.834007l-0.833008,0l0,-0.834007zm0,1.666008l0.833008,0l0,0.834l-0.833008,0l0,-0.834zm1.667007,-11.664001l0.832993,0l0,0.834l-0.832993,0l0,-0.834zm0,1.666l0.832993,0l0,0.834l-0.832993,0l0,-0.834zm0,8.331993l0.832993,0l0,0.834007l-0.832993,0l0,-0.834007zm0,1.666008l0.832993,0l0,0.834l-0.832993,0l0,-0.834zm1.666,-11.664001l0.832993,0l0,0.834l-0.832993,0l0,-0.834zm0,1.666l0.832993,0l0,0.834l-0.832993,0l0,-0.834zm0,8.331993l0.832993,0l0,0.834007l-0.832993,0l0,-0.834007zm0,1.666008l0.832993,0l0,0.834l-0.832993,0l0,-0.834zm1.666992,-11.664001l0.833008,0l0,0.834l-0.833008,0l0,-0.834zm0,1.666l0.833008,0l0,0.834l-0.833008,0l0,-0.834zm0,8.331993l0.833008,0l0,0.834007l-0.833008,0l0,-0.834007zm0,1.666008l0.833008,0l0,0.834l-0.833008,0l0,-0.834zm1.666,-11.664001l0.833008,0l0,0.834l-0.833008,0l0,-0.834zm0,1.666l0.833008,0l0,0.834l-0.833008,0l0,-0.834zm0,1.667999l0.833008,0l0,0.832001l-0.833008,0l0,-0.832001zm0,4.998001l0.833008,0l0,0.834l-0.833008,0l0,-0.834zm0,1.665993l0.833008,0l0,0.834007l-0.833008,0l0,-0.834007zm0,1.666008l0.833008,0l0,0.834l-0.833008,0l0,-0.834zm1.666,-9.998001l0.833008,0l0,0.834l-0.833008,0l0,-0.834zm0,1.667999l0.833008,0l0,0.832001l-0.833008,0l0,-0.832001zm0,4.998001l0.833008,0l0,0.834l-0.833008,0l0,-0.834zm0,1.665993l0.833008,0l0,0.834007l-0.833008,0l0,-0.834007z"/>
    <path id="svg_55" d="m228.542007,117.651993l0.833008,0l0,0.834l-0.833008,0l0,-0.834zm0,1.666l0.833008,0l0,0.834l-0.833008,0l0,-0.834zm0,8.331993l0.833008,0l0,0.834007l-0.833008,0l0,-0.834007zm0,1.666008l0.833008,0l0,0.834l-0.833008,0l0,-0.834zm1.665985,-11.664001l0.832993,0l0,0.834l-0.832993,0l0,-0.834zm0,1.666l0.832993,0l0,0.834l-0.832993,0l0,-0.834zm0,8.331993l0.832993,0l0,0.834007l-0.832993,0l0,-0.834007zm0,1.666008l0.832993,0l0,0.834l-0.832993,0l0,-0.834zm1.667007,-16.661987l0.832993,0l0,0.832001l-0.832993,0l0,-0.832001zm0,1.666l0.832993,0l0,0.832001l-0.832993,0l0,-0.832001zm0,3.331985l0.832993,0l0,0.834l-0.832993,0l0,-0.834zm0,1.666l0.832993,0l0,0.834l-0.832993,0l0,-0.834zm0,1.667999l0.832993,0l0,0.832001l-0.832993,0l0,-0.832001zm0,1.666l0.832993,0l0,0.832001l-0.832993,0l0,-0.832001zm0,1.666l0.832993,0l0,0.831993l-0.832993,0l0,-0.831993zm0,1.666l0.832993,0l0,0.834l-0.832993,0l0,-0.834zm0,1.665993l0.832993,0l0,0.834007l-0.832993,0l0,-0.834007zm0,1.666008l0.832993,0l0,0.834l-0.832993,0l0,-0.834zm1.666,-16.661987l0.832993,0l0,0.832001l-0.832993,0l0,-0.832001zm0,1.666l0.832993,0l0,0.832001l-0.832993,0l0,-0.832001zm0,3.331985l0.832993,0l0,0.834l-0.832993,0l0,-0.834zm0,1.666l0.832993,0l0,0.834l-0.832993,0l0,-0.834zm0,1.667999l0.832993,0l0,0.832001l-0.832993,0l0,-0.832001zm0,1.666l0.832993,0l0,0.832001l-0.832993,0l0,-0.832001zm0,1.666l0.832993,0l0,0.831993l-0.832993,0l0,-0.831993zm0,1.666l0.832993,0l0,0.834l-0.832993,0l0,-0.834zm0,1.665993l0.832993,0l0,0.834007l-0.832993,0l0,-0.834007zm0,1.666008l0.832993,0l0,0.834l-0.832993,0l0,-0.834zm1.666,-1.666008l0.833008,0l0,0.834007l-0.833008,0l0,-0.834007zm0,1.666008l0.833008,0l0,0.834l-0.833008,0l0,-0.834zm1.665985,-1.666008l0.834015,0l0,0.834007l-0.834015,0l0,-0.834007zm0,1.666008l0.834015,0l0,0.834l-0.834015,0l0,-0.834z"/>
    <path id="svg_56" d="m240.256012,117.651993l0.833984,0l0,0.834l-0.833984,0l0,-0.834zm0,1.666l0.833984,0l0,0.834l-0.833984,0l0,-0.834zm1.666992,-6.663986l0.833008,0l0,0.832001l-0.833008,0l0,-0.832001zm0,1.666l0.833008,0l0,0.832001l-0.833008,0l0,-0.832001zm0,1.665985l0.833008,0l0,0.832001l-0.833008,0l0,-0.832001zm0,1.666l0.833008,0l0,0.834l-0.833008,0l0,-0.834zm0,1.666l0.833008,0l0,0.834l-0.833008,0l0,-0.834zm0,1.667999l0.833008,0l0,0.832001l-0.833008,0l0,-0.832001zm0,1.666l0.833008,0l0,0.832001l-0.833008,0l0,-0.832001zm0,1.666l0.833008,0l0,0.831993l-0.833008,0l0,-0.831993zm0,1.666l0.833008,0l0,0.834l-0.833008,0l0,-0.834zm0,1.665993l0.833008,0l0,0.834007l-0.833008,0l0,-0.834007zm0,1.666008l0.833008,0l0,0.834l-0.833008,0l0,-0.834zm1.665985,-18.327988l0.833008,0l0,0.832001l-0.833008,0l0,-0.832001zm0,1.666l0.833008,0l0,0.832001l-0.833008,0l0,-0.832001zm0,1.666l0.833008,0l0,0.832001l-0.833008,0l0,-0.832001zm0,1.665985l0.833008,0l0,0.832001l-0.833008,0l0,-0.832001zm0,1.666l0.833008,0l0,0.834l-0.833008,0l0,-0.834zm0,1.666l0.833008,0l0,0.834l-0.833008,0l0,-0.834zm0,1.667999l0.833008,0l0,0.832001l-0.833008,0l0,-0.832001zm0,1.666l0.833008,0l0,0.832001l-0.833008,0l0,-0.832001zm0,1.666l0.833008,0l0,0.831993l-0.833008,0l0,-0.831993zm0,1.666l0.833008,0l0,0.834l-0.833008,0l0,-0.834zm0,1.665993l0.833008,0l0,0.834007l-0.833008,0l0,-0.834007zm0,1.666008l0.833008,0l0,0.834l-0.833008,0l0,-0.834zm1.667023,-18.327988l0.833008,0l0,0.832001l-0.833008,0l0,-0.832001zm0,1.666l0.833008,0l0,0.832001l-0.833008,0l0,-0.832001zm0,4.997986l0.833008,0l0,0.834l-0.833008,0l0,-0.834zm0,1.666l0.833008,0l0,0.834l-0.833008,0l0,-0.834zm1.665985,-8.329987l0.833008,0l0,0.832001l-0.833008,0l0,-0.832001zm0,1.666l0.833008,0l0,0.832001l-0.833008,0l0,-0.832001zm0,4.997986l0.833008,0l0,0.834l-0.833008,0l0,-0.834zm0,1.666l0.833008,0l0,0.834l-0.833008,0l0,-0.834zm1.666016,-8.329987l0.833984,0l0,0.832001l-0.833984,0l0,-0.832001zm0,1.666l0.833984,0l0,0.832001l-0.833984,0l0,-0.832001zm0,1.666l0.833984,0l0,0.832001l-0.833984,0l0,-0.832001zm1.665985,-1.666l0.834015,0l0,0.832001l-0.834015,0l0,-0.832001zm0,1.666l0.834015,0l0,0.832001l-0.834015,0l0,-0.832001z"/>
    <path id="svg_57" d="m253.636993,117.651993l0.833984,0l0,0.834l-0.833984,0l0,-0.834zm0,1.666l0.833984,0l0,0.834l-0.833984,0l0,-0.834zm0,1.667999l0.833984,0l0,0.832001l-0.833984,0l0,-0.832001zm0,1.666l0.833984,0l0,0.832001l-0.833984,0l0,-0.832001zm0,1.666l0.833984,0l0,0.831993l-0.833984,0l0,-0.831993zm0,1.666l0.833984,0l0,0.834l-0.833984,0l0,-0.834zm0,1.665993l0.833984,0l0,0.834007l-0.833984,0l0,-0.834007zm0,1.666008l0.833984,0l0,0.834l-0.833984,0l0,-0.834zm1.666016,-11.664001l0.834015,0l0,0.834l-0.834015,0l0,-0.834zm0,1.666l0.834015,0l0,0.834l-0.834015,0l0,-0.834zm0,1.667999l0.834015,0l0,0.832001l-0.834015,0l0,-0.832001zm0,1.666l0.834015,0l0,0.832001l-0.834015,0l0,-0.832001zm0,1.666l0.834015,0l0,0.831993l-0.834015,0l0,-0.831993zm0,1.666l0.834015,0l0,0.834l-0.834015,0l0,-0.834zm0,1.665993l0.834015,0l0,0.834007l-0.834015,0l0,-0.834007zm0,1.666008l0.834015,0l0,0.834l-0.834015,0l0,-0.834zm1.665985,-9.998001l0.833984,0l0,0.834l-0.833984,0l0,-0.834zm0,1.667999l0.833984,0l0,0.832001l-0.833984,0l0,-0.832001zm1.667999,-3.334l0.830994,0l0,0.834l-0.830994,0l0,-0.834zm0,1.666l0.830994,0l0,0.834l-0.830994,0l0,-0.834zm1.666016,-1.666l0.833008,0l0,0.834l-0.833008,0l0,-0.834zm0,1.666l0.833008,0l0,0.834l-0.833008,0l0,-0.834zm1.664978,-1.666l0.834015,0l0,0.834l-0.834015,0l0,-0.834zm0,1.666l0.834015,0l0,0.834l-0.834015,0l0,-0.834zm0,1.667999l0.834015,0l0,0.832001l-0.834015,0l0,-0.832001zm1.666016,-1.667999l0.834991,0l0,0.834l-0.834991,0l0,-0.834zm0,1.667999l0.834991,0l0,0.832001l-0.834991,0l0,-0.832001z"/>
    <path id="svg_58" d="m267.018005,117.651993l0.834015,0l0,0.834l-0.834015,0l0,-0.834zm0,1.666l0.834015,0l0,0.834l-0.834015,0l0,-0.834zm0,5l0.834015,0l0,0.831993l-0.834015,0l0,-0.831993zm0,1.666l0.834015,0l0,0.834l-0.834015,0l0,-0.834zm0,1.665993l0.834015,0l0,0.834007l-0.834015,0l0,-0.834007zm1.665985,-9.997993l0.833984,0l0,0.834l-0.833984,0l0,-0.834zm0,1.666l0.833984,0l0,0.834l-0.833984,0l0,-0.834zm0,3.334l0.833984,0l0,0.832001l-0.833984,0l0,-0.832001zm0,1.666l0.833984,0l0,0.831993l-0.833984,0l0,-0.831993zm0,1.666l0.833984,0l0,0.834l-0.833984,0l0,-0.834zm0,1.665993l0.833984,0l0,0.834007l-0.833984,0l0,-0.834007zm0,1.666008l0.833984,0l0,0.834l-0.833984,0l0,-0.834zm1.666016,-11.664001l0.834015,0l0,0.834l-0.834015,0l0,-0.834zm0,1.666l0.834015,0l0,0.834l-0.834015,0l0,-0.834zm0,3.334l0.834015,0l0,0.832001l-0.834015,0l0,-0.832001zm0,1.666l0.834015,0l0,0.831993l-0.834015,0l0,-0.831993zm0,3.331993l0.834015,0l0,0.834007l-0.834015,0l0,-0.834007zm0,1.666008l0.834015,0l0,0.834l-0.834015,0l0,-0.834zm1.667999,-11.664001l0.832001,0l0,0.834l-0.832001,0l0,-0.834zm0,1.666l0.832001,0l0,0.834l-0.832001,0l0,-0.834zm0,3.334l0.832001,0l0,0.832001l-0.832001,0l0,-0.832001zm0,1.666l0.832001,0l0,0.831993l-0.832001,0l0,-0.831993zm0,3.331993l0.832001,0l0,0.834007l-0.832001,0l0,-0.834007zm0,1.666008l0.832001,0l0,0.834l-0.832001,0l0,-0.834zm1.665985,-11.664001l0.833008,0l0,0.834l-0.833008,0l0,-0.834zm0,1.666l0.833008,0l0,0.834l-0.833008,0l0,-0.834zm0,3.334l0.833008,0l0,0.832001l-0.833008,0l0,-0.832001zm0,1.666l0.833008,0l0,0.831993l-0.833008,0l0,-0.831993zm0,3.331993l0.833008,0l0,0.834007l-0.833008,0l0,-0.834007zm0,1.666008l0.833008,0l0,0.834l-0.833008,0l0,-0.834zm1.666016,-11.664001l0.833008,0l0,0.834l-0.833008,0l0,-0.834zm0,1.666l0.833008,0l0,0.834l-0.833008,0l0,-0.834zm0,1.667999l0.833008,0l0,0.832001l-0.833008,0l0,-0.832001zm0,1.666l0.833008,0l0,0.832001l-0.833008,0l0,-0.832001zm0,1.666l0.833008,0l0,0.831993l-0.833008,0l0,-0.831993zm0,1.666l0.833008,0l0,0.834l-0.833008,0l0,-0.834zm0,1.665993l0.833008,0l0,0.834007l-0.833008,0l0,-0.834007zm0,1.666008l0.833008,0l0,0.834l-0.833008,0l0,-0.834zm1.665985,-9.998001l0.833984,0l0,0.834l-0.833984,0l0,-0.834zm0,1.667999l0.833984,0l0,0.832001l-0.833984,0l0,-0.832001zm0,1.666l0.833984,0l0,0.832001l-0.833984,0l0,-0.832001zm0,1.666l0.833984,0l0,0.831993l-0.833984,0l0,-0.831993zm0,1.666l0.833984,0l0,0.834l-0.833984,0l0,-0.834zm0,1.665993l0.833984,0l0,0.834007l-0.833984,0l0,-0.834007zm0,1.666008l0.833984,0l0,0.834l-0.833984,0l0,-0.834z"/>
    <path id="svg_59" d="m280.39801,119.317993l0.833008,0l0,0.834l-0.833008,0l0,-0.834zm0,1.667999l0.833008,0l0,0.832001l-0.833008,0l0,-0.832001zm0,1.666l0.833008,0l0,0.832001l-0.833008,0l0,-0.832001zm0,4.997993l0.833008,0l0,0.834007l-0.833008,0l0,-0.834007zm0,1.666008l0.833008,0l0,0.834l-0.833008,0l0,-0.834zm1.665985,-11.664001l0.833008,0l0,0.834l-0.833008,0l0,-0.834zm0,1.666l0.833008,0l0,0.834l-0.833008,0l0,-0.834zm0,1.667999l0.833008,0l0,0.832001l-0.833008,0l0,-0.832001zm0,1.666l0.833008,0l0,0.832001l-0.833008,0l0,-0.832001zm0,1.666l0.833008,0l0,0.831993l-0.833008,0l0,-0.831993zm0,3.331993l0.833008,0l0,0.834007l-0.833008,0l0,-0.834007zm0,1.666008l0.833008,0l0,0.834l-0.833008,0l0,-0.834zm1.666016,-11.664001l0.833984,0l0,0.834l-0.833984,0l0,-0.834zm0,1.666l0.833984,0l0,0.834l-0.833984,0l0,-0.834zm0,3.334l0.833984,0l0,0.832001l-0.833984,0l0,-0.832001zm0,1.666l0.833984,0l0,0.831993l-0.833984,0l0,-0.831993zm0,3.331993l0.833984,0l0,0.834007l-0.833984,0l0,-0.834007zm0,1.666008l0.833984,0l0,0.834l-0.833984,0l0,-0.834zm1.667999,-11.664001l0.832001,0l0,0.834l-0.832001,0l0,-0.834zm0,1.666l0.832001,0l0,0.834l-0.832001,0l0,-0.834zm0,3.334l0.832001,0l0,0.832001l-0.832001,0l0,-0.832001zm0,1.666l0.832001,0l0,0.831993l-0.832001,0l0,-0.831993zm0,3.331993l0.832001,0l0,0.834007l-0.832001,0l0,-0.834007zm0,1.666008l0.832001,0l0,0.834l-0.832001,0l0,-0.834zm1.664001,-11.664001l0.833984,0l0,0.834l-0.833984,0l0,-0.834zm0,1.666l0.833984,0l0,0.834l-0.833984,0l0,-0.834zm0,3.334l0.833984,0l0,0.832001l-0.833984,0l0,-0.832001zm0,1.666l0.833984,0l0,0.831993l-0.833984,0l0,-0.831993zm0,3.331993l0.833984,0l0,0.834007l-0.833984,0l0,-0.834007zm0,1.666008l0.833984,0l0,0.834l-0.833984,0l0,-0.834zm1.667999,-11.664001l0.832001,0l0,0.834l-0.832001,0l0,-0.834zm0,1.666l0.832001,0l0,0.834l-0.832001,0l0,-0.834zm0,3.334l0.832001,0l0,0.832001l-0.832001,0l0,-0.832001zm0,1.666l0.832001,0l0,0.831993l-0.832001,0l0,-0.831993zm0,1.666l0.832001,0l0,0.834l-0.832001,0l0,-0.834zm0,1.665993l0.832001,0l0,0.834007l-0.832001,0l0,-0.834007zm0,1.666008l0.832001,0l0,0.834l-0.832001,0l0,-0.834zm1.665985,-11.664001l0.832001,0l0,0.834l-0.832001,0l0,-0.834zm0,1.666l0.832001,0l0,0.834l-0.832001,0l0,-0.834zm0,5l0.832001,0l0,0.831993l-0.832001,0l0,-0.831993zm0,1.666l0.832001,0l0,0.834l-0.832001,0l0,-0.834zm0,1.665993l0.832001,0l0,0.834007l-0.832001,0l0,-0.834007z"/>
   </g>
   <g id="svg_67">
    <path id="svg_61" d="m123.287987,107.774986l0,-26.054985l-30.092995,0l-13.945999,-13.945l0,-15.677002l14.035995,-13.838001l7.774002,-0.056999l0,24.695l31.981003,0l13.474014,13.945004l0,17.039001l-13.894012,13.893997l-9.332008,0l0,-0.001015zm-44.038986,-20.864983l23.172997,0l0,8.282997l17.195999,0l0,12.581985l-28.677994,0l-11.691002,-13.89399l0,-6.970993zm25.479996,-36.176003l0,-12.531002l27.838005,0l12.059006,12.111l0,7.395l-21.33802,0l0,-6.974998l-18.55899,0z" fill="#E21525"/>
    <path id="svg_62" d="m149.664993,92.939003l6.972992,0l0,-39.951004l-6.972992,0l0,-14.785l37.117996,0l0,14.785l-6.972992,0l0,39.951004l6.972992,0l0,14.835983l-37.117996,0l0,-14.835983z" fill="#E21525"/>
    <path id="svg_63" d="m258.653992,107.774986l-24.641006,0l-42.151001,-69.571987l24.483002,0l42.309006,69.571987zm-66.791992,0l0,-62.963985l20.184998,33.081997l0,29.881989l-20.184998,0l0,0zm66.791992,-69.571987l0,62.966999l-20.18399,-33.237999l0,-29.729l20.18399,0z" fill="#E21525"/>
    <path id="svg_64" d="m263.02301,38.202999l23.174011,0l0,31.091999l21.390991,0l0,13.683998l-21.390991,0l0,24.79599l-23.174011,0l0,-69.571987zm26.843994,13.895l0,-13.895l35.335999,0l0,23.07l-23.171997,0l0,-9.175999l-12.164001,0.000999l0,0z" fill="#322975"/>
    <path id="svg_65" d="m351.845001,93.883003l8.545013,0l0,13.892998l-17.822021,0l-13.945007,-13.892998l0,-55.680004l23.225006,0l0,55.680004l-0.002991,0zm43.987,0l-13.894989,13.892998l-17.877014,0l0,-13.892998l8.597992,0l0,-55.680004l23.174011,0l0,55.680004z" fill="#322975"/>
    <path id="svg_66" d="m399.056,38.370998l71.324005,0l0,15.152l-71.324005,0l0,-15.152zm20.660004,18.678001l24.153992,0l0,50.803013l-24.153992,0l0,-50.803013z" fill="#322975"/>
   </g>
  </g>
 </g>
</svg>